<svg width="41" height="40" viewBox="0 0 41 40" fill="none" xmlns="http://www.w3.org/2000/svg">
<path fill-rule="evenodd" clip-rule="evenodd" d="M22.1359 5.27704C23.033 5.38259 23.8773 5.5409 24.7216 5.80475L28.0989 2.95515L31.8984 3.48285C31.8984 3.48285 30.2098 6.38522 29.2599 8.07388C29.8404 8.49604 30.4208 9.02375 30.9485 9.55145C31.0541 9.65699 31.1596 9.76253 31.2124 9.8153L35.5923 9.02375L38.6003 11.3984C38.6003 11.3984 35.6979 13.0871 34.062 14.0369C34.4314 14.8285 34.6952 15.6728 34.9063 16.5171L39.0752 18.0475L40.5 21.5831C40.5 21.5831 37.1227 21.5831 35.223 21.5831C35.1174 22.4802 34.9591 23.3245 34.6953 24.1689L37.5449 27.5462L37.0171 31.3456C37.0171 31.3456 34.1148 29.657 32.4261 28.7071C32.004 29.2876 31.4763 29.8681 30.9485 30.3958C30.843 30.5013 30.7375 30.6069 30.6847 30.6596L31.4763 35.0396L29.1016 38.0475C29.1016 38.0475 27.4129 35.1451 26.4631 33.5092C25.6715 33.8786 24.8272 34.1425 23.9828 34.3536L22.4525 38.5224L18.9169 39.9472C18.9169 39.9472 18.9169 36.5699 18.9169 34.6702C18.0198 34.5646 17.1755 34.4063 16.3311 34.1425L12.9538 36.9921L9.15435 36.4644C9.15435 36.4644 10.843 33.562 11.7929 31.8734C11.2124 31.4512 10.6319 30.9235 10.1042 30.3958C9.99868 30.2902 9.89314 30.1847 9.84037 30.1319L5.46042 30.9235L2.45251 28.5488C2.45251 28.5488 5.35488 26.8602 7.04354 25.9103C6.67414 25.1187 6.41029 24.2744 6.19921 23.4301L2.03034 21.8997L0.5 18.4169C0.5 18.4169 3.87731 18.4169 5.77704 18.4169C5.88259 17.5198 6.0409 16.6755 6.30475 15.8311L3.45515 12.4538L3.98285 8.65435C3.98285 8.65435 6.88522 10.343 8.57388 11.2929C8.99604 10.7124 9.52375 10.1319 10.0515 9.60422C10.157 9.49868 10.2625 9.44591 10.3153 9.34037L9.52375 4.96042L11.8984 1.95251C11.8984 1.95251 13.5871 4.85488 14.5369 6.54354C15.3285 6.17414 16.1728 5.91029 17.0171 5.69921L18.5475 1.53034L22.1359 0C22.1359 0 22.1359 3.37731 22.1359 5.27704ZM31.1069 16.7282L25.4077 20L31.1069 23.2718C31.4235 22.2164 31.5818 21.1082 31.5818 20C31.5818 18.8918 31.4235 17.7836 31.1069 16.7282ZM17.8087 24.4327L12.3734 27.5462C12.4789 27.6517 12.5844 27.7573 12.69 27.8628C14.062 29.2348 15.8562 30.2902 17.8087 30.7652V24.4327ZM9.84037 23.1135L15.2757 20L9.84037 16.8865C9.57652 17.8892 9.41821 18.8918 9.41821 20C9.41821 21.1082 9.57652 22.1636 9.84037 23.1135ZM22.8747 15.6201L28.5211 12.3483C28.4683 12.2955 28.4156 12.2427 28.3628 12.1372C26.8852 10.6596 24.9855 9.60422 22.8747 9.12929V15.6201ZM28.5211 27.6517L22.8747 24.3799V30.8179C24.9855 30.343 26.8852 29.2876 28.3628 27.81C28.4156 27.81 28.4683 27.7573 28.5211 27.6517ZM12.3734 12.4538L17.8087 15.6201V9.23483C15.8034 9.76253 14.062 10.7652 12.6372 12.1372C12.5317 12.2427 12.4789 12.3483 12.3734 12.4538Z" fill="white"/>
</svg>
