<svg width="37" height="22" viewBox="0 0 37 22" fill="none" xmlns="http://www.w3.org/2000/svg">
<g id="Frame" clip-path="url(#clip0_19_169)">
<path id="Vector" fill-rule="evenodd" clip-rule="evenodd" d="M0.5 6.71111C9.8988 5.55556 18.9958 9.82222 28.1359 13.4667L33.1802 15.3333C34.0425 15.7333 35.3359 16.0889 36.5 16.4C36.7156 19.2 35.9826 20.9778 34.9479 22.0444C24.5575 22.0444 14.1671 22.0444 3.73353 22.0444C3.77665 20.4444 4.33713 19.3778 5.88922 18.5333C3.73353 16.4444 1.57784 11.9556 0.5 6.71111ZM6.83772 2.8V0.577778V0H6.27725H2.82814V0.577778H6.27725V2.8H6.83772ZM6.83772 6.13333V3.91111V3.33333H6.27725H2.82814V3.91111H6.27725V6.13333H6.83772ZM21.1084 0.488889H17.1419V1.06667H21.1084V3.28889L25.2042 4.97778V2.17778L21.1084 0.488889ZM11.5371 0H7.52754V0.577778H11.5371V2.8L15.6329 4.48889V1.68889L11.5371 0ZM11.5371 3.33333H7.52754V3.91111H11.5371V6.13333L15.6329 7.82222V5.02222L11.5371 3.33333ZM16.3659 1.91111V4.71111L20.4617 6.4V3.55556L16.3659 1.91111ZM16.3659 5.24444V8.04445L20.4617 9.73333V6.93333L16.3659 5.24444ZM21.1515 3.95556V6.75556L25.2473 8.44444V5.64444L21.1515 3.95556ZM21.1515 7.28889V10.0889L25.2473 11.7778V8.97778L21.1515 7.28889ZM30.9383 13.6L33.9994 14.7111V14.3556L35.1635 14.4V13.5556L34.3874 13.0222V12.1333L30.9383 9.73333H29.6449V9.11111H28.524V8.26667H27.4461V9.77778H26.0665V10.4889H30.9383V13.6ZM30.5503 11.8222H29.6449V12.3111H30.5503V11.8222ZM27.7479 10.8444H26.8425V11.3333H27.7479V10.8444ZM29.2138 10.8444H28.3084V11.3333H29.2138V10.8444ZM30.5503 10.8444H29.6449V11.3333H30.5503V10.8444ZM8.77784 10.5333C7.95868 10.5333 7.31198 11.2 7.31198 12.0444C7.31198 12.8889 7.95868 13.5556 8.77784 13.5556C9.59701 13.5556 10.2437 12.8889 10.2437 12.0444C10.2437 11.2 9.59701 10.5333 8.77784 10.5333Z" fill="white"/>
</g>
<defs>
<clipPath id="clip0_19_169">
<rect width="36" height="22" fill="white" transform="translate(0.5)"/>
</clipPath>
</defs>
</svg>
