<svg width="41" height="37" viewBox="0 0 41 37" fill="none" xmlns="http://www.w3.org/2000/svg">
<g id="Frame" clip-path="url(#clip0_19_179)">
<path id="Vector" fill-rule="evenodd" clip-rule="evenodd" d="M20.8616 15.4679C21.1398 15.5235 21.4179 15.5792 21.6961 15.6904C21.4736 15.8017 21.251 15.8574 21.0285 15.9686L20.8616 15.4679ZM17.2455 10.7386C13.2955 10.9611 9.73505 11.6288 6.95341 12.5746C2.94784 13.91 0.5 16.0243 0.5 18.528C0.5 20.9205 2.78095 22.9792 6.50834 24.3145C4.83936 27.931 4.67246 30.9912 6.34145 32.6604C8.1217 34.4408 11.3484 34.1626 15.1314 32.2709C17.4124 31.1581 19.9715 29.4333 22.5306 27.2634L17.4124 27.1521C16.1328 28.0423 14.8533 28.8213 13.685 29.3776C11.1815 30.6017 9.23435 31.0468 8.56676 30.3235C7.89916 29.6558 8.28859 27.7085 9.51252 25.2047V25.1491C12.628 25.8724 16.3554 26.3175 20.4165 26.3175C23.0313 26.3175 25.5348 26.1506 27.8713 25.8167C28.0939 26.7626 28.2051 27.7085 28.3164 28.5987C28.5946 31.3807 28.3164 33.328 27.4819 33.7175C26.5918 34.107 24.9784 33.0498 23.0313 31.0468C22.5862 30.6017 22.1412 30.0453 21.6405 29.4333L18.9145 31.1581C19.5264 31.937 20.1384 32.6047 20.6947 33.2724C23.5876 36.3325 26.5362 37.7235 28.8171 36.6664C31.0981 35.6092 31.9325 32.4934 31.5431 28.3205C31.4318 27.3746 31.2649 26.3731 31.0424 25.316C32.0994 25.0934 33.1008 24.8152 33.991 24.4814C37.9965 23.0904 40.4444 21.0318 40.4444 18.528C40.4444 16.0243 37.9965 13.91 33.991 12.5746C31.6544 11.7401 28.6502 11.1837 25.3679 10.8498C25.0341 10.2934 24.7003 9.73705 24.4221 9.2363C25.4235 8.62427 26.3693 8.06788 27.2594 7.62276C29.7629 6.3987 31.71 5.95359 32.3776 6.6769C32.9896 7.28893 32.7114 8.90246 31.71 11.0724L34.7698 11.9626C36.105 8.67991 36.1606 5.95359 34.6029 4.34006C32.8227 2.55961 29.596 2.8378 25.8129 4.72953C24.8115 5.23028 23.6989 5.84231 22.5862 6.56562C21.8074 5.50848 20.9729 4.56261 20.194 3.72803C17.3011 0.667877 14.3526 -0.7231 12.0716 0.334043C9.79068 1.39119 8.95619 4.50698 9.34562 8.67991C9.40125 9.06938 9.45688 9.45885 9.51252 9.84833L12.6836 9.57013C12.628 9.18066 12.5723 8.73555 12.5167 8.40171C12.2385 5.61976 12.5167 3.67239 13.3512 3.28291C14.2413 2.89344 15.8547 3.95058 17.8018 5.95359C18.4694 6.6769 19.1926 7.51149 19.9159 8.45735C19.137 9.12502 18.1912 9.90397 17.2455 10.7386ZM27.1481 22.7566C26.5362 20.8092 25.7573 18.6949 24.7559 16.5807C24.3108 15.6904 23.9214 14.8002 23.4764 13.9656C22.5306 13.91 21.5292 13.91 20.5278 13.91C19.8602 13.91 19.2483 13.91 18.5807 13.9656C18.1356 14.4107 17.6349 14.8558 17.1898 15.301C14.7976 17.6934 12.7949 20.1416 11.2928 22.4228C13.9631 22.9792 17.1342 23.313 20.4722 23.313C22.8644 23.2017 25.0897 23.0348 27.1481 22.7566ZM27.2038 14.2995C29.4291 14.5777 31.3762 15.0228 32.9896 15.5792C35.6599 16.4694 37.2733 17.5265 37.2733 18.528C37.2733 19.5295 35.6043 20.531 32.9896 21.4769C32.1551 21.7551 31.2649 22.0333 30.3192 22.2558C29.6516 20.0303 28.7615 17.6934 27.7044 15.301C27.5375 14.9115 27.3707 14.5777 27.2038 14.2995ZM8.06606 21.4769H8.01043C5.34005 20.5867 3.7267 19.5295 3.7267 18.528C3.7267 17.5265 5.39569 16.525 8.01043 15.5792C9.56815 15.0228 11.5153 14.5777 13.6293 14.2995C11.3484 16.6919 9.45688 19.1957 8.06606 21.4769ZM17.8018 17.3596C18.1912 16.3025 19.0257 15.5235 20.2497 15.4679L20.5278 16.3025C19.8046 16.7476 19.1926 17.304 18.6919 17.916L17.8018 17.3596ZM17.6349 19.5852C17.5236 19.0288 17.5236 18.4724 17.6349 17.9716L18.3025 18.3611C18.08 18.7506 17.8574 19.1401 17.6349 19.5852ZM23.1982 17.1927C23.9214 19.0844 22.9757 21.4213 20.6391 21.4213C22.0855 20.3085 22.8644 18.8619 23.1982 17.1927ZM20.5278 14.3551C18.2469 14.3551 16.3554 16.2468 16.3554 18.528C16.3554 20.8092 18.2469 22.701 20.5278 22.701C22.8088 22.701 24.7003 20.8092 24.7003 18.528C24.7003 16.2468 22.8088 14.3551 20.5278 14.3551Z" fill="white"/>
</g>
<defs>
<clipPath id="clip0_19_179">
<rect width="40" height="37" fill="white" transform="translate(0.5)"/>
</clipPath>
</defs>
</svg>
