<svg width="1089" height="566" viewBox="0 0 1089 566" fill="none" xmlns="http://www.w3.org/2000/svg">
<g clip-path="url(#clip0_908_2249)">
<path d="M1064.65 277.807H11.2021V289.096H1064.65V277.807Z" fill="#FB0F0C"/>
<path d="M281.396 433.249L19.5576 419.703L20.1222 408.414L280.718 421.96L550.234 371.727L717.115 293.047L1066.46 408.64L1062.85 419.364L717.793 305.125L553.734 382.564L281.396 433.249Z" fill="#1D0E82"/>
<path d="M20.2353 551.664L18.8804 540.488L190.955 519.04H365.627L554.751 380.419L717.793 305.125L1069.51 541.391L1063.3 550.76L716.89 318.107L560.622 390.127L369.24 530.328H191.633L20.2353 551.664Z" fill="#3CA7BF"/>
<path d="M1063.52 288.305L932.096 211.206L805.072 210.077L724.229 277.469H542.105L541.202 277.13L276.766 190.774L18.0898 157.021L19.5577 145.846L279.251 179.711L279.815 179.937L543.911 266.18H720.051L801.007 198.789L935.257 199.917L936.499 200.708L1069.28 278.597L1063.52 288.305Z" fill="#169133"/>
<path d="M720.051 266.18H535.443L378.498 91.7747H190.842L17.5254 25.286L21.5901 14.7878L192.875 80.4863H383.466L540.411 254.892H716.551L800.894 189.419H934.58L1057.76 59.0383L1065.89 66.8273L939.435 200.708H804.508L720.051 266.18Z" fill="#3CA7BF"/>
<path d="M19.3317 562.614C10.6376 562.614 3.63721 555.615 3.63721 546.923C3.63721 538.231 10.6376 531.232 19.3317 531.232C28.0258 531.232 35.0262 538.231 35.0262 546.923C34.9133 555.615 27.9128 562.614 19.3317 562.614Z" fill="white"/>
<path d="M19.3318 566C8.83115 566 0.25 557.421 0.25 546.923C0.25 536.424 8.83115 527.845 19.3318 527.845C29.8324 527.845 38.4136 536.424 38.4136 546.923C38.4136 557.421 29.8324 566 19.3318 566ZM19.3318 534.618C12.5572 534.618 7.0246 540.15 7.0246 546.923C7.0246 553.696 12.5572 559.227 19.3318 559.227C26.1064 559.227 31.639 553.696 31.639 546.923C31.639 540.15 25.9935 534.618 19.3318 534.618Z" fill="#40AAC5"/>
<path d="M19.3317 34.6553C10.6376 34.6553 3.63721 27.6565 3.63721 19.0773C3.63721 10.3853 10.6376 3.38647 19.3317 3.38647C28.0258 3.38647 35.0262 10.3853 35.0262 19.0773C34.9133 27.6565 27.9128 34.6553 19.3317 34.6553Z" fill="white"/>
<path d="M19.3318 38.0419C8.83115 38.0419 0.25 29.5756 0.25 19.0774C0.25 8.57918 8.83115 0 19.3318 0C29.8324 0 38.4136 8.57918 38.4136 19.0774C38.4136 29.5756 29.8324 38.0419 19.3318 38.0419ZM19.3318 6.77304C12.5572 6.77304 7.0246 12.3043 7.0246 19.0774C7.0246 25.8504 12.5572 31.3817 19.3318 31.3817C26.1064 31.3817 31.639 25.8504 31.639 19.0774C31.639 12.3043 25.9935 6.77304 19.3318 6.77304Z" fill="#40AAC5"/>
<path d="M1066.46 75.1806C1057.76 75.1806 1050.76 68.1818 1050.76 59.4897C1050.76 50.7976 1057.76 43.7988 1066.46 43.7988C1075.15 43.7988 1082.15 50.7976 1082.15 59.4897C1082.04 68.1818 1075.04 75.1806 1066.46 75.1806Z" fill="white"/>
<path d="M1066.46 78.5671C1055.96 78.5671 1047.38 69.9879 1047.38 59.4897C1047.38 48.9915 1055.96 40.4124 1066.46 40.4124C1076.96 40.4124 1085.54 48.9915 1085.54 59.4897C1085.54 69.9879 1076.96 78.5671 1066.46 78.5671ZM1066.46 47.2983C1059.68 47.2983 1054.15 52.8296 1054.15 59.6026C1054.15 66.3757 1059.68 71.907 1066.46 71.907C1073.23 71.907 1078.77 66.3757 1078.77 59.6026C1078.77 52.8296 1073.12 47.2983 1066.46 47.2983Z" fill="#40AAC5"/>
<path d="M19.3317 428.394C10.6376 428.394 3.63721 421.396 3.63721 412.704C3.63721 404.011 10.6376 397.013 19.3317 397.013C28.0258 397.013 35.0262 404.011 35.0262 412.704C34.9133 421.396 27.9128 428.394 19.3317 428.394Z" fill="white"/>
<path d="M19.3318 431.781C8.83115 431.781 0.25 423.315 0.25 412.817C0.25 402.318 8.83115 393.739 19.3318 393.739C29.8324 393.739 38.4136 402.318 38.4136 412.817C38.4136 423.315 29.8324 431.781 19.3318 431.781ZM19.3318 400.512C12.5572 400.512 7.0246 406.044 7.0246 412.817C7.0246 419.59 12.5572 425.121 19.3318 425.121C26.1064 425.121 31.639 419.59 31.639 412.817C31.639 406.044 25.9935 400.512 19.3318 400.512Z" fill="#200D7E"/>
<path d="M19.3317 299.142C10.6376 299.142 3.63721 292.144 3.63721 283.452C3.63721 274.76 10.6376 267.761 19.3317 267.761C28.0258 267.761 35.0262 274.76 35.0262 283.452C34.9133 292.144 27.9128 299.142 19.3317 299.142Z" fill="white"/>
<path d="M19.3318 302.529C8.83115 302.529 0.25 293.95 0.25 283.451C0.25 272.953 8.83115 264.374 19.3318 264.374C29.8324 264.374 38.4136 272.953 38.4136 283.451C38.4136 293.95 29.8324 302.529 19.3318 302.529ZM19.3318 271.26C12.5572 271.26 7.0246 276.791 7.0246 283.564C7.0246 290.337 12.5572 295.756 19.3318 295.756C26.1064 295.756 31.639 290.224 31.639 283.451C31.639 276.678 25.9935 271.26 19.3318 271.26Z" fill="#F8130D"/>
<path d="M19.3317 165.036C10.6376 165.036 3.63721 158.038 3.63721 149.458C3.63721 140.766 10.6376 133.768 19.3317 133.768C28.0258 133.768 35.0262 140.766 35.0262 149.458C34.9133 158.038 27.9128 165.036 19.3317 165.036Z" fill="white"/>
<path d="M19.3318 168.423C8.83115 168.423 0.25 159.844 0.25 149.345C0.25 138.847 8.83115 130.268 19.3318 130.268C29.8324 130.268 38.4136 138.847 38.4136 149.345C38.4136 159.844 29.8324 168.423 19.3318 168.423ZM19.3318 137.154C12.5572 137.154 7.0246 142.685 7.0246 149.458C7.0246 156.231 12.5572 161.763 19.3318 161.763C26.1064 161.763 31.639 156.231 31.639 149.458C31.639 142.685 25.9935 137.154 19.3318 137.154Z" fill="#178B36"/>
<path d="M1069.28 299.142C1060.59 299.142 1053.59 292.144 1053.59 283.452C1053.59 274.76 1060.59 267.761 1069.28 267.761C1077.97 267.761 1084.98 274.76 1084.98 283.452C1084.86 292.144 1077.86 299.142 1069.28 299.142Z" fill="white"/>
<path d="M1069.28 302.529C1058.78 302.529 1050.2 293.95 1050.2 283.451C1050.2 272.953 1058.78 264.374 1069.28 264.374C1079.78 264.374 1088.36 272.953 1088.36 283.451C1088.36 293.95 1079.78 302.529 1069.28 302.529ZM1069.28 271.26C1062.51 271.26 1056.97 276.791 1056.97 283.564C1056.97 290.337 1062.51 295.869 1069.28 295.869C1076.06 295.869 1081.59 290.337 1081.59 283.564C1081.59 276.791 1076.06 271.26 1069.28 271.26Z" fill="#191919"/>
<path d="M1064.65 429.298C1055.96 429.298 1048.96 422.299 1048.96 413.607C1048.96 404.915 1055.96 397.916 1064.65 397.916C1073.35 397.916 1080.35 404.915 1080.35 413.607C1080.23 422.299 1073.23 429.298 1064.65 429.298Z" fill="white"/>
<path d="M1064.65 432.684C1054.15 432.684 1045.57 424.105 1045.57 413.607C1045.57 403.108 1054.15 394.529 1064.65 394.529C1075.15 394.529 1083.73 403.108 1083.73 413.607C1083.73 424.105 1075.15 432.684 1064.65 432.684ZM1064.65 401.415C1057.88 401.415 1052.34 406.947 1052.34 413.72C1052.34 420.493 1057.88 426.024 1064.65 426.024C1071.43 426.024 1076.96 420.493 1076.96 413.72C1076.96 406.947 1071.43 401.415 1064.65 401.415Z" fill="#200D7E"/>
<path d="M1066.46 560.92C1057.76 560.92 1050.76 553.921 1050.76 545.229C1050.76 536.537 1057.76 529.539 1066.46 529.539C1075.15 529.539 1082.15 536.537 1082.15 545.229C1082.04 553.921 1075.04 560.92 1066.46 560.92Z" fill="white"/>
<path d="M1066.46 564.307C1055.96 564.307 1047.38 555.727 1047.38 545.229C1047.38 534.731 1055.96 526.152 1066.46 526.152C1076.96 526.152 1085.54 534.731 1085.54 545.229C1085.54 555.727 1076.96 564.307 1066.46 564.307ZM1066.46 532.925C1059.68 532.925 1054.15 538.456 1054.15 545.229C1054.15 552.002 1059.68 557.534 1066.46 557.534C1073.23 557.534 1078.77 552.002 1078.77 545.229C1078.77 538.456 1073.12 532.925 1066.46 532.925Z" fill="#40AAC5"/>
<path d="M193.213 531.232C188.019 531.232 183.841 527.055 183.841 521.863C183.841 516.67 188.019 512.493 193.213 512.493C198.407 512.493 202.584 516.67 202.584 521.863C202.697 526.942 198.407 531.232 193.213 531.232Z" fill="white"/>
<path d="M193.213 534.618C186.212 534.618 180.454 528.861 180.454 521.862C180.454 514.864 186.212 509.106 193.213 509.106C200.213 509.106 205.972 514.864 205.972 521.862C205.972 528.861 200.326 534.618 193.213 534.618ZM193.213 515.767C189.939 515.767 187.229 518.476 187.229 521.749C187.229 525.023 189.939 527.732 193.213 527.732C196.487 527.732 199.197 525.023 199.197 521.749C199.197 518.476 196.6 515.767 193.213 515.767Z" fill="#40AAC5"/>
<path d="M193.213 93.9194C188.019 93.9194 183.841 89.7427 183.841 84.55C183.841 79.3574 188.019 75.1807 193.213 75.1807C198.407 75.1807 202.584 79.3574 202.584 84.55C202.697 89.7427 198.407 93.9194 193.213 93.9194Z" fill="white"/>
<path d="M193.213 97.306C186.212 97.306 180.454 91.5489 180.454 84.5501C180.454 77.5513 186.212 71.7942 193.213 71.7942C200.213 71.7942 205.972 77.5513 205.972 84.5501C205.972 91.5489 200.326 97.306 193.213 97.306ZM193.213 78.5672C189.939 78.5672 187.229 81.2764 187.229 84.5501C187.229 87.8237 189.939 90.5329 193.213 90.5329C196.487 90.5329 199.197 87.8237 199.197 84.5501C199.31 81.2764 196.6 78.5672 193.213 78.5672Z" fill="#40AAC5"/>
<path d="M380.305 95.0483C375.111 95.0483 370.933 90.8716 370.933 85.6789C370.933 80.4863 375.111 76.3096 380.305 76.3096C385.499 76.3096 389.676 80.4863 389.676 85.6789C389.789 90.8716 385.499 95.0483 380.305 95.0483Z" fill="white"/>
<path d="M380.305 98.4349C373.304 98.4349 367.546 92.6778 367.546 85.679C367.546 78.6802 373.304 72.9231 380.305 72.9231C387.305 72.9231 393.176 78.5673 393.176 85.679C393.176 92.7907 387.418 98.4349 380.305 98.4349ZM380.305 79.5832C377.03 79.5832 374.32 82.2925 374.32 85.5661C374.32 88.8397 377.03 91.5489 380.305 91.5489C383.579 91.5489 386.289 88.8397 386.289 85.5661C386.402 82.2925 383.692 79.5832 380.305 79.5832Z" fill="#40AAC5"/>
<path d="M280.154 435.168C274.96 435.168 270.782 430.991 270.782 425.799C270.782 420.606 274.96 416.429 280.154 416.429C285.348 416.429 289.525 420.606 289.525 425.799C289.638 430.991 285.348 435.168 280.154 435.168Z" fill="white"/>
<path d="M280.154 438.554C273.153 438.554 267.395 432.797 267.395 425.798C267.395 418.8 273.153 413.042 280.154 413.042C287.154 413.042 292.913 418.8 292.913 425.798C292.913 432.797 287.267 438.554 280.154 438.554ZM280.154 419.816C276.879 419.816 274.17 422.525 274.17 425.798C274.17 429.072 276.879 431.781 280.154 431.781C283.428 431.781 286.138 429.072 286.138 425.798C286.251 422.525 283.541 419.816 280.154 419.816Z" fill="#200D7E"/>
<path d="M99.7236 291.805C94.5297 291.805 90.3521 287.628 90.3521 282.436C90.3521 277.243 94.5297 273.066 99.7236 273.066C104.917 273.066 109.095 277.243 109.095 282.436C109.095 287.628 104.917 291.805 99.7236 291.805Z" fill="white"/>
<path d="M99.7237 295.191C92.7233 295.191 86.9648 289.434 86.9648 282.436C86.9648 275.437 92.7233 269.68 99.7237 269.68C106.724 269.68 112.482 275.437 112.482 282.436C112.482 289.434 106.837 295.191 99.7237 295.191ZM99.7237 276.34C96.4493 276.34 93.7394 279.049 93.7394 282.323C93.7394 285.596 96.4493 288.306 99.7237 288.306C102.998 288.306 105.708 285.596 105.708 282.323C105.708 279.049 103.111 276.34 99.7237 276.34Z" fill="#F8130D"/>
<path d="M280.605 194.386C275.412 194.386 271.234 190.209 271.234 185.017C271.234 179.824 275.412 175.647 280.605 175.647C285.799 175.647 289.977 179.824 289.977 185.017C289.977 190.209 285.799 194.386 280.605 194.386Z" fill="white"/>
<path d="M280.606 197.773C273.605 197.773 267.847 192.016 267.847 185.017C267.847 178.018 273.605 172.261 280.606 172.261C287.606 172.261 293.364 178.018 293.364 185.017C293.364 192.016 287.719 197.773 280.606 197.773ZM280.606 179.034C277.331 179.034 274.621 181.743 274.621 185.017C274.621 188.29 277.331 191 280.606 191C283.88 191 286.59 188.29 286.59 185.017C286.59 181.743 283.993 179.034 280.606 179.034Z" fill="#178B36"/>
<path d="M214.214 291.805C209.02 291.805 204.843 287.628 204.843 282.436C204.843 277.243 209.02 273.066 214.214 273.066C219.408 273.066 223.586 277.243 223.586 282.436C223.586 287.628 219.408 291.805 214.214 291.805Z" fill="white"/>
<path d="M214.214 295.191C207.214 295.191 201.456 289.434 201.456 282.436C201.456 275.437 207.214 269.68 214.214 269.68C221.215 269.68 226.973 275.437 226.973 282.436C226.973 289.434 221.215 295.191 214.214 295.191ZM214.214 276.34C210.94 276.34 208.23 279.049 208.23 282.323C208.23 285.596 210.94 288.306 214.214 288.306C217.489 288.306 220.199 285.596 220.199 282.323C220.199 279.049 217.489 276.34 214.214 276.34Z" fill="#F8130D"/>
<path d="M323.285 291.805C318.091 291.805 313.914 287.628 313.914 282.436C313.914 277.243 318.091 273.066 323.285 273.066C328.479 273.066 332.657 277.243 332.657 282.436C332.77 287.628 328.479 291.805 323.285 291.805Z" fill="white"/>
<path d="M323.285 295.191C316.285 295.191 310.526 289.434 310.526 282.436C310.526 275.437 316.285 269.68 323.285 269.68C330.286 269.68 336.044 275.437 336.044 282.436C336.044 289.434 330.399 295.191 323.285 295.191ZM323.285 276.34C320.011 276.34 317.301 279.049 317.301 282.323C317.301 285.596 320.011 288.306 323.285 288.306C326.56 288.306 329.269 285.596 329.269 282.323C329.382 279.049 326.673 276.34 323.285 276.34Z" fill="#F8130D"/>
<path d="M417 291.805C411.807 291.805 407.629 287.628 407.629 282.436C407.629 277.243 411.807 273.066 417 273.066C422.194 273.066 426.372 277.243 426.372 282.436C426.372 287.628 422.194 291.805 417 291.805Z" fill="white"/>
<path d="M417.001 295.191C410 295.191 404.242 289.434 404.242 282.436C404.242 275.437 410 269.68 417.001 269.68C424.001 269.68 429.759 275.437 429.759 282.436C429.759 289.434 424.114 295.191 417.001 295.191ZM417.001 276.34C413.726 276.34 411.016 279.049 411.016 282.323C411.016 285.596 413.726 288.306 417.001 288.306C420.275 288.306 422.985 285.596 422.985 282.323C422.985 279.049 420.388 276.34 417.001 276.34Z" fill="#F8130D"/>
<path d="M717.228 269.002C712.034 269.002 707.856 264.826 707.856 259.633C707.856 254.44 712.034 250.264 717.228 250.264C722.422 250.264 726.599 254.44 726.599 259.633C726.712 264.826 722.422 269.002 717.228 269.002Z" fill="white"/>
<path d="M717.228 272.389C710.228 272.389 704.469 266.632 704.469 259.633C704.469 252.634 710.228 246.877 717.228 246.877C724.228 246.877 729.987 252.634 729.987 259.633C729.987 266.632 724.341 272.389 717.228 272.389ZM717.228 253.65C713.954 253.65 711.244 256.359 711.244 259.633C711.244 262.906 713.954 265.616 717.228 265.616C720.502 265.616 723.212 262.906 723.212 259.633C723.325 256.359 720.615 253.65 717.228 253.65Z" fill="#191919"/>
<path d="M368.224 531.232C363.03 531.232 358.852 527.055 358.852 521.863C358.852 516.67 363.03 512.493 368.224 512.493C373.417 512.493 377.595 516.67 377.595 521.863C377.595 526.942 373.417 531.232 368.224 531.232Z" fill="white"/>
<path d="M368.224 534.618C361.223 534.618 355.465 528.861 355.465 521.862C355.465 514.864 361.223 509.106 368.224 509.106C375.224 509.106 380.982 514.864 380.982 521.862C380.982 528.861 375.224 534.618 368.224 534.618ZM368.224 515.767C364.949 515.767 362.239 518.476 362.239 521.749C362.239 525.023 364.949 527.732 368.224 527.732C371.498 527.732 374.208 525.023 374.208 521.749C374.208 518.476 371.498 515.767 368.224 515.767Z" fill="#40AAC5"/>
<path d="M717.228 323.977C712.034 323.977 707.856 319.8 707.856 314.608C707.856 309.415 712.034 305.238 717.228 305.238C722.422 305.238 726.599 309.415 726.599 314.608C726.712 319.687 722.422 323.977 717.228 323.977Z" fill="white"/>
<path d="M717.228 327.363C710.228 327.363 704.469 321.606 704.469 314.607C704.469 307.609 710.228 301.852 717.228 301.852C724.228 301.852 729.987 307.609 729.987 314.607C729.987 321.606 724.341 327.363 717.228 327.363ZM717.228 308.512C713.954 308.512 711.244 311.221 711.244 314.495C711.244 317.768 713.954 320.477 717.228 320.477C720.502 320.477 723.212 317.768 723.212 314.495C723.325 311.221 720.615 308.512 717.228 308.512Z" fill="#191919"/>
<path d="M722.874 269.002H711.583V305.125H722.874V269.002Z" fill="#191919"/>
<path d="M537.927 269.002C532.733 269.002 528.555 264.826 528.555 259.633C528.555 254.44 532.733 250.264 537.927 250.264C543.121 250.264 547.298 254.44 547.298 259.633C547.298 264.826 543.121 269.002 537.927 269.002Z" fill="white"/>
<path d="M537.927 272.389C530.926 272.389 525.168 266.632 525.168 259.633C525.168 252.634 530.926 246.877 537.927 246.877C544.927 246.877 550.686 252.634 550.686 259.633C550.686 266.632 544.927 272.389 537.927 272.389ZM537.927 253.65C534.652 253.65 531.943 256.359 531.943 259.633C531.943 262.906 534.652 265.616 537.927 265.616C541.201 265.616 543.911 262.906 543.911 259.633C543.911 256.359 541.201 253.65 537.927 253.65Z" fill="#191919"/>
<path d="M804.394 210.303C799.201 210.303 795.023 206.126 795.023 200.934C795.023 195.741 799.201 191.564 804.394 191.564C809.588 191.564 813.766 195.741 813.766 200.934C813.766 206.126 809.588 210.303 804.394 210.303Z" fill="white"/>
<path d="M804.395 213.69C797.394 213.69 791.636 207.932 791.636 200.934C791.636 193.935 797.394 188.178 804.395 188.178C811.395 188.178 817.153 193.935 817.153 200.934C817.153 207.932 811.395 213.69 804.395 213.69ZM804.395 194.951C801.12 194.951 798.41 197.66 798.41 200.934C798.41 204.207 801.12 206.916 804.395 206.916C807.669 206.916 810.379 204.207 810.379 200.934C810.379 197.66 807.669 194.951 804.395 194.951Z" fill="#191919"/>
<path d="M935.37 210.303C930.176 210.303 925.999 206.126 925.999 200.934C925.999 195.741 930.176 191.564 935.37 191.564C940.564 191.564 944.742 195.741 944.742 200.934C944.742 206.126 940.564 210.303 935.37 210.303Z" fill="white"/>
<path d="M935.37 213.69C928.37 213.69 922.611 207.932 922.611 200.934C922.611 193.935 928.37 188.178 935.37 188.178C942.371 188.178 948.129 193.935 948.129 200.934C948.129 207.932 942.371 213.69 935.37 213.69ZM935.37 194.951C932.096 194.951 929.386 197.66 929.386 200.934C929.386 204.207 932.096 206.916 935.37 206.916C938.645 206.916 941.354 204.207 941.354 200.934C941.354 197.66 938.645 194.951 935.37 194.951Z" fill="#191919"/>
<path d="M537.927 294.966C532.733 294.966 528.555 290.789 528.555 285.596C528.555 280.404 532.733 276.227 537.927 276.227C543.121 276.227 547.298 280.404 547.298 285.596C547.298 290.789 543.121 294.966 537.927 294.966Z" fill="white"/>
<path d="M537.927 298.352C530.926 298.352 525.168 292.595 525.168 285.596C525.168 278.597 530.926 272.84 537.927 272.84C544.927 272.84 550.686 278.597 550.686 285.596C550.686 292.595 544.927 298.352 537.927 298.352ZM537.927 279.5C534.652 279.5 531.943 282.21 531.943 285.483C531.943 288.757 534.652 291.466 537.927 291.466C541.201 291.466 543.911 288.757 543.911 285.483C543.911 282.21 541.201 279.5 537.927 279.5Z" fill="#191919"/>
<path d="M552.379 391.707C547.185 391.707 543.008 387.531 543.008 382.338C543.008 377.145 547.185 372.969 552.379 372.969C557.573 372.969 561.751 377.145 561.751 382.338C561.751 387.418 557.573 391.707 552.379 391.707Z" fill="white"/>
<path d="M552.379 395.094C545.379 395.094 539.621 389.337 539.621 382.338C539.621 375.339 545.379 369.582 552.379 369.582C559.38 369.582 565.138 375.339 565.138 382.338C565.138 389.337 559.493 395.094 552.379 395.094ZM552.379 376.242C549.105 376.242 546.395 378.951 546.395 382.225C546.395 385.499 549.105 388.208 552.379 388.208C555.654 388.208 558.364 385.499 558.364 382.225C558.364 378.951 555.654 376.242 552.379 376.242Z" fill="#191919"/>
<path d="M543.573 269.002H532.282V278.823H543.573V269.002Z" fill="#191919"/>
</g>
<defs>
<clipPath id="clip0_908_2249">
<rect width="1088" height="566" fill="white" transform="translate(0.25)"/>
</clipPath>
</defs>
</svg>
