<svg width="35" height="35" viewBox="0 0 35 35" fill="none" xmlns="http://www.w3.org/2000/svg">
<g id="Frame" clip-path="url(#clip0_20_181)">
<g id="XMLID_15_">
<g id="XMLID_16_">
<path id="XMLID_19_" d="M4.2 24.7998L9.6 28.4998L6.7 33.7998C6.4 33.9998 5.8 33.9998 5.5 33.6998L2.5 30.6998L4.2 24.7998Z" fill="white"/>
<path id="XMLID_18_" d="M30.6 8.2L26.4 3.4L31.2 2L34.2 5C34.5 5.3 34.5 5.9 34.2 6.2L30.6 8.2Z" fill="white"/>
<path id="XMLID_17_" d="M34.6 23.3L27.9 26.7L27.3 27.3L23.9 34C23.6 34.3 23.3 34.3 23 34L21.1 32.1L22.7 26C22.1 25.7 21.5 25.3 21 24.8L14.8 19.1L11 26L5.1 22L7.9 12.7L1.8 6.99999C0.0999976 5.29999 0.0999978 2.69999 1.6 1.19999C3.2 -0.400009 5.8 -0.400009 7.5 1.29999L13.1 7.29999L23.5 4.19999L28.1 9.49999L19.6 14.2L25.4 20.5C25.9 21 26.3 21.5 26.6 22.1L32.8 20.5L34.7 22.4C34.9 22.6 34.9 23 34.6 23.3Z" fill="white"/>
</g>
</g>
</g>
<defs>
<clipPath id="clip0_20_181">
<rect width="34.3" height="34.2" fill="white" transform="translate(0.5)"/>
</clipPath>
</defs>
</svg>
