<svg width="37" height="27" viewBox="0 0 37 27" fill="none" xmlns="http://www.w3.org/2000/svg">
<g id="Frame" clip-path="url(#clip0_19_167)">
<path id="Vector" fill-rule="evenodd" clip-rule="evenodd" d="M0.5 15.9158H1.78063V15.1579C1.78063 13.2632 2.53953 11.5105 3.82016 10.2789C5.05336 9.04737 6.8083 8.24211 8.70553 8.24211H13.2589C15.1561 8.24211 16.9111 9 18.1443 10.2789C19.3775 11.5105 20.1838 13.2632 20.1838 15.1579V15.9158H21.1798V19.4684C23.9783 20.2263 27.7727 21.1737 28.0099 17.1H24.4051L24.2628 15.7263L23.504 9.47368H21.3221V7.15263H24.2154V1.08947C24.2154 0.521053 24.7372 0 25.3538 0C25.9704 0 26.4447 0.521053 26.4447 1.08947V7.15263H31.8043V1.08947C31.8043 0.521053 32.3261 0 32.8953 0C33.5119 0 33.9862 0.521053 33.9862 1.08947V7.15263H36.4526V9.47368H34.413H29.7648V10.2316L34.3182 10.8L33.4644 17.0526H30.4289C30.1917 22.2632 25.6858 23.2579 21.085 21.8842V23.6842H19.33V27H15.4407V23.7316H6.09684V27H2.20751V23.7316H0.5V15.9158ZM4.62648 15.9158H17.2431V15.1579C17.2431 14.0684 16.7688 13.0263 16.0573 12.3158C15.3458 11.6053 14.3024 11.1316 13.2115 11.1316H8.6581C7.56719 11.1316 6.52371 11.6053 5.81225 12.3158C5.10079 13.0263 4.62648 14.0684 4.62648 15.1579V15.9158ZM19.2352 18.2368L14.6818 18.9V20.9842H17.2905H19.2352V18.2368ZM2.3498 18.2368V20.9842H4.62648H6.90316V18.9L2.3498 18.2368Z" fill="white"/>
</g>
<defs>
<clipPath id="clip0_19_167">
<rect width="36" height="27" fill="white" transform="translate(0.5)"/>
</clipPath>
</defs>
</svg>
