<svg width="41" height="29" viewBox="0 0 41 29" fill="none" xmlns="http://www.w3.org/2000/svg">
<g id="Frame" clip-path="url(#clip0_19_175)">
<path id="Vector" fill-rule="evenodd" clip-rule="evenodd" d="M0.5 26.4575H2.50614V13.6658H8.89304V17.1616L10.2032 16.4466H10.9401V10.1699H12.5368V26.4575H15.4028V5.60137H21.7897V10.0507V10.8849L23.3454 10.011H23.8367V0H25.4335V26.4575H28.4632V10.6863H34.891V14.063H35.2185L34.891 14.2616V15.0959L36.7334 14.063H36.9381V6.39589H38.5348V26.4575H40.5V29H0.5V26.4575ZM36.9381 15.1356L34.891 16.2877V17.1219L36.9381 15.9699V15.1356ZM36.9381 17.1616L34.891 18.3137V19.1479L36.9381 17.9959V17.1616ZM36.9381 19.1877L34.891 20.3397V21.174L36.9381 20.0219V19.1877ZM36.9381 21.2137L34.891 22.3658V23.2L36.9381 22.0479V21.2137ZM36.9381 23.2795L34.891 24.4315V25.2658L36.9381 24.1137V23.2795ZM36.9381 25.3055L34.891 26.4575H36.4058L36.979 26.1397V25.3055H36.9381ZM23.8367 10.9247L21.7897 12.0767V12.911L23.8367 11.7589V10.9247ZM23.8367 12.9904L21.7897 14.1425V14.9767L23.8367 13.8247V12.9904ZM23.8367 15.0164L21.7897 16.1685V17.0027L23.8367 15.8507V15.0164ZM23.8367 17.0425L21.7897 18.1945V19.0288L23.8367 17.8767V17.0425ZM23.8367 19.0685L21.7897 20.2205V21.0548L23.8367 19.9027V19.0685ZM23.8367 21.1342L21.7897 22.2863V23.1205L23.8367 21.9685V21.1342ZM23.8367 23.1603L21.7897 24.3123V25.1466L23.8367 23.9945V23.1603ZM23.8367 25.1863L21.7897 26.3384V26.4575H23.0998L23.8777 26.0205V25.1863H23.8367ZM10.9401 17.2014L8.89304 18.3534V19.1877L10.9401 18.0356V17.2014ZM10.9401 19.2274L8.89304 20.3795V21.2137L10.9401 20.0616V19.2274ZM10.9401 21.2931L8.89304 22.4452V23.2795L10.9401 22.1274V21.2931ZM10.9401 23.3192L8.89304 24.4712V25.3055L10.9401 24.1534V23.3192ZM10.9401 25.3452L8.97492 26.4575H10.4898L10.9811 26.1795V25.3452H10.9401Z" fill="white"/>
</g>
<defs>
<clipPath id="clip0_19_175">
<rect width="40" height="29" fill="white" transform="translate(0.5)"/>
</clipPath>
</defs>
</svg>
