<svg width="34" height="29" viewBox="0 0 34 29" fill="none" xmlns="http://www.w3.org/2000/svg">
<g id="Frame" clip-path="url(#clip0_19_173)">
<path id="Vector" fill-rule="evenodd" clip-rule="evenodd" d="M17.2106 0.139423H22.0787V9.48077H23.2021V11.9439L24.2319 11.5721L25.0745 7.34295L32.283 7.29647L33.0787 18.7292L33.5 28.6747L31.1596 28.6282L29.7085 20.0304L26.8532 22.633L27.2745 28.6282L25.4489 28.5817L23.8106 21.6106L27.6489 16.9167L26.666 12.1763L25.7766 13.4776L23.2957 13.6635V13.7099H22.3596H16.0872V9.38782H17.2106V0.139423ZM1.0617 6.83173L8.45745 6.87821L9.72128 12.8269L13.4191 13.8958L12.9043 14.9647L7.6617 15.3365L6.91277 11.9439L6.39787 16.5449L9.81489 21.6571L8.87872 28.9535L7.00638 29L6.67872 22.6795L4.29149 19.4728L4.43191 23.5625L3.12128 28.9535H1.34255L1.24894 22.4471L0.5 15.8942L1.0617 6.83173ZM28.4447 0.650641C26.8064 0.650641 25.4489 1.9984 25.4489 3.625C25.4489 5.2516 26.8064 6.59936 28.4447 6.59936C30.083 6.59936 31.4404 5.2516 31.4404 3.625C31.3936 1.9984 30.083 0.650641 28.4447 0.650641ZM4.94681 0C6.63192 0 7.98936 1.34776 7.98936 3.06731C7.98936 4.74038 6.63191 6.13462 4.9 6.13462C3.21489 6.13462 1.81064 4.78686 1.81064 3.06731C1.85745 1.34776 3.21489 0 4.94681 0ZM10.9383 24.1202V28.4423H23.2957V24.1202H19.5511V16.4519H14.6362V24.1202H10.9383Z" fill="white"/>
</g>
<defs>
<clipPath id="clip0_19_173">
<rect width="33" height="29" fill="white" transform="translate(0.5)"/>
</clipPath>
</defs>
</svg>
